<svg width="300" height="300" viewBox="0 0 300 300" fill="none" xmlns="http://www.w3.org/2000/svg">
<path d="M91.857 104.734C89.8807 103.084 76.4775 90.47 76.2712 88.9143C76.2642 88.8608 76.2732 88.8063 76.274 88.752C80.383 85.0563 86.184 82.4575 90.968 79.6875L119.785 63.09L135.077 54.2683C137.844 52.6645 140.45 50.8083 143.426 49.6015C146.32 48.4278 149.364 48.4993 152.436 48.67C154.13 48.7643 155.603 49.1345 157.127 49.8813C160.252 51.4123 163.271 53.3905 166.296 55.132L187.181 67.2223L215.419 83.585C221.238 86.9248 227.33 90.0435 232.95 93.7073C234.615 94.7928 236.185 96.0333 237.507 97.5255C238.268 98.384 238.924 99.2683 239.105 100.423C239.51 103.017 239.351 105.824 239.351 108.446L239.34 120.958L239.294 165.228C239.199 165.285 239.099 165.336 239.008 165.4C238.594 165.692 238.361 165.898 237.847 165.99C234.672 166.555 231.213 166.405 228 166.5C225.8 166.565 220 167 220 167C220 166 219.727 155.347 219.727 155.347C219.727 155.347 219.914 125.75 219.526 110.993C214.909 108.551 210.443 105.772 205.916 103.162L180.393 88.466L163.531 78.7088C158.952 76.0953 154.248 73.572 149.875 70.622C145.109 74.436 137.346 78.2548 131.837 81.4195C118.496 89.0835 104.869 96.5335 91.857 104.734Z" fill="url(#paint0_linear_342_11863)"/>
<path d="M91.857 104.734C89.8807 103.084 76.4775 90.47 76.2712 88.9143C76.2642 88.8608 76.2732 88.8063 76.274 88.752C80.383 85.0563 86.184 82.4575 90.968 79.6875L119.785 63.09L135.077 54.2683C137.844 52.6645 140.45 50.8083 143.426 49.6015C146.32 48.4278 149.364 48.4993 152.436 48.67C154.13 48.7643 155.603 49.1345 157.127 49.8813C160.252 51.4123 163.271 53.3905 166.296 55.132L187.181 67.2223L215.419 83.585C221.238 86.9248 227.33 90.0435 232.95 93.7073C234.615 94.7928 236.185 96.0333 237.507 97.5255C238.268 98.384 238.924 99.2683 239.105 100.423C239.51 103.017 239.351 105.824 239.351 108.446L239.34 120.958L239.294 165.228C239.199 165.285 239.099 165.336 239.008 165.4C238.594 165.692 238.361 165.898 237.847 165.99C234.672 166.555 231.213 166.405 228 166.5C225.8 166.565 220 167 220 167C220 166 219.727 155.347 219.727 155.347C219.727 155.347 219.914 125.75 219.526 110.993C214.909 108.551 210.443 105.772 205.916 103.162L180.393 88.466L163.531 78.7088C158.952 76.0953 154.248 73.572 149.875 70.622C145.109 74.436 137.346 78.2548 131.837 81.4195C118.496 89.0835 104.869 96.5335 91.857 104.734Z" fill="url(#paint1_linear_342_11863)"/>
<path d="M89.9549 194.634C95.2116 196.726 100.392 200.661 105.363 203.455C120.441 211.993 135.455 220.645 150.402 229.41C162.377 221.627 175.209 215.02 187.508 207.743C189.936 206.306 192.533 205.069 194.897 203.538C195.47 203.168 195.969 202.831 196.246 202.18C198.5 207.5 201 214.5 203.793 223.69C192.925 229.587 182.28 236.067 171.579 242.271C166.686 245.108 161.693 248.465 156.509 250.7C153.082 252.175 147.871 252.28 144.396 250.89C141.281 249.641 138.416 247.678 135.551 245.948C132.4 244.032 129.21 242.179 125.986 240.39L95.5224 222.812C88.3451 218.672 81.0644 214.704 74.0264 210.33C73.3846 209.931 72.7769 209.505 72.4736 208.792C73.7861 206.843 87.7239 195.85 89.9549 194.634Z" fill="url(#paint2_linear_342_11863)"/>
<path d="M225.521 166.516C225.521 166.516 227.209 166.399 228.039 166.375C229.02 166.346 230.021 166.351 231.029 166.357C233.319 166.37 235.642 166.383 237.847 165.99C238.299 165.909 238.534 165.741 238.864 165.503C238.91 165.47 238.958 165.436 239.008 165.4C239.068 165.357 239.133 165.321 239.197 165.284C239.23 165.266 239.263 165.247 239.295 165.228C239.296 166.861 239.287 168.498 239.279 170.136C239.251 175.186 239.224 180.25 239.499 185.279C237.15 185.076 234.72 185.235 232.323 185.392C231.401 185.453 230.484 185.513 229.578 185.552C228.027 185.619 226.475 185.677 224.923 185.736C220.916 185.887 216.906 186.039 212.91 186.33C213.857 188.841 214.635 191.419 215.413 193.997C215.887 195.567 216.36 197.138 216.872 198.693C217.286 199.948 217.737 201.208 218.19 202.473C219.124 205.082 220.066 207.712 220.696 210.36L220.718 210.451C220.987 211.579 221.309 212.927 221.036 214.067C219.004 215.854 211.473 219.728 206.696 222.186C205.521 222.79 204.512 223.309 203.793 223.69C203.793 223.69 197.5 205.5 196.246 202.18L189.604 181.611C189.28 180.6 188.93 179.573 188.576 178.536C187.556 175.547 186.508 172.475 185.977 169.465C186.8 168.851 225.521 166.516 225.521 166.516Z" fill="url(#paint3_linear_342_11863)"/>
<path d="M225.521 166.516C225.521 166.516 227.209 166.399 228.039 166.375C229.02 166.346 230.021 166.351 231.029 166.357C233.319 166.37 235.642 166.383 237.847 165.99C238.299 165.909 238.534 165.741 238.864 165.503C238.91 165.47 238.958 165.436 239.008 165.4C239.068 165.357 239.133 165.321 239.197 165.284C239.23 165.266 239.263 165.247 239.295 165.228C239.296 166.861 239.287 168.498 239.279 170.136C239.251 175.186 239.224 180.25 239.499 185.279C237.15 185.076 234.72 185.235 232.323 185.392C231.401 185.453 230.484 185.513 229.578 185.552C228.027 185.619 226.475 185.677 224.923 185.736C220.916 185.887 216.906 186.039 212.91 186.33C213.857 188.841 214.635 191.419 215.413 193.997C215.887 195.567 216.36 197.138 216.872 198.693C217.286 199.948 217.737 201.208 218.19 202.473C219.124 205.082 220.066 207.712 220.696 210.36L220.718 210.451C220.987 211.579 221.309 212.927 221.036 214.067C219.004 215.854 211.473 219.728 206.696 222.186C205.521 222.79 204.512 223.309 203.793 223.69C203.793 223.69 197.5 205.5 196.246 202.18L189.604 181.611C189.28 180.6 188.93 179.573 188.576 178.536C187.556 175.547 186.508 172.475 185.977 169.465C186.8 168.851 225.521 166.516 225.521 166.516Z" fill="url(#paint4_radial_342_11863)"/>
<path d="M139.424 192.918C136.09 191.594 132.605 189.022 129.466 187.201C126.266 185.344 118.749 181.527 116.246 179.419C115.626 178.898 115.54 177.113 115.49 176.352C115.166 171.441 115.466 166.341 115.472 161.412C115.486 148.116 115.827 134.714 115.444 121.43C118.195 122.538 138.668 134.108 139.57 135.233C139.161 145.05 139.669 154.957 139.492 164.792C139.518 174.168 139.495 183.543 139.424 192.918Z" fill="url(#paint5_linear_342_11863)"/>
<path d="M139.354 107.327C150.678 113.742 161.95 120.249 173.169 126.847C176.966 129.091 181.028 131.085 184.723 133.474C185.234 133.805 185.654 134.131 185.923 134.69C185.807 135.45 185.535 135.672 184.92 136.133C182.135 138.223 178.656 139.792 175.632 141.539C172.025 143.623 168.45 146.031 164.72 147.862C163.995 148.218 163.327 148.463 162.517 148.524C159.799 147.768 142.576 137.359 139.572 135.233C138.669 134.108 118.197 122.538 115.445 121.43C116.287 120.241 136.57 108.602 139.354 107.327Z" fill="#2D86E5"/>
<path d="M60.8086 114.722C64.0511 115.75 76.9786 129.45 79.9346 132.59C81.1658 139.05 80.5353 148.509 80.5373 155.29C80.5393 160.97 80.9061 166.931 80.4366 172.583C80.3726 173.353 80.2966 174.194 79.8771 174.866C78.4278 177.187 73.7013 180.512 71.4561 182.397C68.0511 185.175 64.7276 189.004 60.6738 190.728C61.0998 183.195 60.9088 175.566 60.9118 168.022L60.8553 129.274C60.8501 124.444 60.6263 119.54 60.8086 114.722Z" fill="url(#paint6_linear_342_11863)"/>
<path d="M139.492 164.793C141.849 163.282 162.232 151.156 163.145 151.4C163.713 151.552 182.171 162.376 183.859 163.45C184.636 163.944 185.361 164.466 185.944 165.187L185.996 165.613C183.772 167.35 140.358 192.771 139.424 192.918C139.495 183.543 139.518 174.168 139.492 164.793Z" fill="url(#paint7_linear_342_11863)"/>
<path d="M61.0194 98.5C61.0194 98.5 66.5838 103.833 68.2518 105.458C72.1298 109.235 75.9593 113.07 79.8763 116.804C80.4668 119.375 80.6633 122.068 80.7198 124.7C80.5868 124.69 80.5355 124.69 80.3938 124.658C78.8803 124.316 62.5363 107.81 61.0185 105.44C60.891 103.427 61.1189 100.514 61.0194 98.5Z" fill="#2D86E5"/>
<path d="M79.9997 179.5C79.9997 179.5 80.4997 184.313 80.4997 185.5C80.4997 186 79.6584 186.616 79.0979 187.222C77.1546 189.323 64.4055 200.678 62.0002 202C62.0002 202 60.7719 197.59 60.9999 196C64.7997 192.422 68.9669 188.94 72.9489 185.575C75.1651 183.702 77.6392 181.191 79.9997 179.5Z" fill="#1766C6"/>
<path d="M69.6947 91.9287L70.3587 92.0195C72.803 93.7115 83.7035 104.17 85.1587 106.353C85.5367 106.92 85.7842 107.257 85.6335 107.945C84.6807 109.057 83.1235 109.718 81.8545 110.419L81.571 110.407C79.8525 109.606 67.2737 96.778 65.3135 94.5512C66.7522 93.6365 68.1757 92.7075 69.6947 91.9287Z" fill="#2D86E5"/>
<path d="M81.692 189.973C82.828 190.172 85.4173 192.676 85.4173 192.676C85.3973 193.152 85.2193 193.409 84.8805 193.743C83.0485 195.549 80.8745 197.155 78.9023 198.815C75.536 201.67 72.1975 204.556 68.8865 207.474C67.1323 206.773 65.7703 205.546 64.415 204.27C65.7873 202.734 80.5865 190.56 81.692 189.973Z" fill="#1766C6"/>
<defs>
<linearGradient id="paint0_linear_342_11863" x1="178.5" y1="69.5" x2="233" y2="170.5" gradientUnits="userSpaceOnUse">
<stop stop-color="#1760BC"/>
<stop offset="0.495406" stop-color="#2D86E3"/>
<stop offset="0.938975" stop-color="#1760BC"/>
</linearGradient>
<linearGradient id="paint1_linear_342_11863" x1="148" y1="61.5" x2="86.5" y2="99" gradientUnits="userSpaceOnUse">
<stop offset="0.384092" stop-color="#2B83E0" stop-opacity="0"/>
<stop offset="1" stop-color="#2B83E0"/>
</linearGradient>
<linearGradient id="paint2_linear_342_11863" x1="150" y1="192.5" x2="150.5" y2="252" gradientUnits="userSpaceOnUse">
<stop offset="0.276363" stop-color="#1055B1"/>
<stop offset="1" stop-color="#3392EE"/>
</linearGradient>
<linearGradient id="paint3_linear_342_11863" x1="166.5" y1="157.5" x2="232.5" y2="199" gradientUnits="userSpaceOnUse">
<stop stop-color="#1E69C2"/>
<stop offset="1" stop-color="#2D86E3"/>
</linearGradient>
<radialGradient id="paint4_radial_342_11863" cx="0" cy="0" r="1" gradientUnits="userSpaceOnUse" gradientTransform="translate(198 178) rotate(30.7627) scale(24.4387 9.7199)">
<stop offset="0.396977" stop-color="#1F6DCB"/>
<stop offset="1" stop-color="#1F6DCB" stop-opacity="0"/>
</radialGradient>
<linearGradient id="paint5_linear_342_11863" x1="134.196" y1="126.052" x2="120.42" y2="187.919" gradientUnits="userSpaceOnUse">
<stop stop-color="#125BB5"/>
<stop offset="1" stop-color="#318EED"/>
</linearGradient>
<linearGradient id="paint6_linear_342_11863" x1="79.3213" y1="181.807" x2="52.1443" y2="119.737" gradientUnits="userSpaceOnUse">
<stop stop-color="#1159B4"/>
<stop offset="1" stop-color="#2C84E1"/>
</linearGradient>
<linearGradient id="paint7_linear_342_11863" x1="134.418" y1="183.526" x2="178.377" y2="155.033" gradientUnits="userSpaceOnUse">
<stop stop-color="#115AB7"/>
<stop offset="1" stop-color="#3390ED"/>
</linearGradient>
</defs>
</svg>
